<?xml version="1.0" encoding="UTF-8" standalone="no"?>
<!-- Created with Inkscape (http://www.inkscape.org/) -->

<svg
   xmlns:dc="http://purl.org/dc/elements/1.1/"
   xmlns:cc="http://creativecommons.org/ns#"
   xmlns:rdf="http://www.w3.org/1999/02/22-rdf-syntax-ns#"
   xmlns:svg="http://www.w3.org/2000/svg"
   xmlns="http://www.w3.org/2000/svg"
   xmlns:sodipodi="http://sodipodi.sourceforge.net/DTD/sodipodi-0.dtd"
   xmlns:inkscape="http://www.inkscape.org/namespaces/inkscape"
   version="1.1"
   width="64"
   height="64"
   id="svg3809"
   inkscape:version="0.48.5 r10040"
   sodipodi:docname="icon_cycle.svg">
  <sodipodi:namedview
     pagecolor="#7f7f7f"
     bordercolor="#666666"
     borderopacity="1"
     objecttolerance="10"
     gridtolerance="10"
     guidetolerance="10"
     inkscape:pageopacity="0.6627451"
     inkscape:pageshadow="2"
     inkscape:window-width="808"
     inkscape:window-height="364"
     id="namedview7"
     showgrid="false"
     inkscape:zoom="3.6875"
     inkscape:cx="32"
     inkscape:cy="32"
     inkscape:window-x="1110"
     inkscape:window-y="366"
     inkscape:window-maximized="0"
     inkscape:current-layer="svg3809" />
  <defs
     id="defs3811" />
  <metadata
     id="metadata3814">
    <rdf:RDF>
      <cc:Work
         rdf:about="">
        <dc:format>image/svg+xml</dc:format>
        <dc:type
           rdf:resource="http://purl.org/dc/dcmitype/StillImage" />
        <dc:title />
      </cc:Work>
    </rdf:RDF>
  </metadata>
  <g
     id="layer1"
     style="fill:#ffffff">
    <path
       d="m 36.096271,1.8758883 c -8.431653,0 -8.851535,0.08783 -7.565652,1.563386 0.749341,0.859861 2.980493,4.540767 4.969319,8.1798307 l 3.629279,6.616465 -1.926307,1.647135 c -1.904364,1.614808 -1.811298,1.638541 5.611422,1.423791 l 7.537739,-0.223336 3.37802,-5.806853 c 3.974551,-6.8327047 4.179524,-7.8704777 1.200455,-5.9185167 -2.153663,1.4111277 -2.248708,1.3839077 -3.685115,-1.451713 -2.955973,-5.835395 -3.390599,-6.030189 -13.14916,-6.030189 z m -13.819186,0.893361 c -3.297449,0.194925 -4.917842,2.024547 -9.464046,9.9386477 l -2.372987,4.103873 6.058102,3.657202 c 3.32598,2.007929 6.337958,3.563478 6.700214,3.46177 0.362256,-0.10169 2.41543,-3.182599 4.578476,-6.867714 3.667071,-6.24746 3.846053,-6.861377 2.708005,-9.0732007 -2.031944,-3.949084 -3.843616,-5.220578 -7.509826,-5.220578 -0.236055,0 -0.478108,-0.01293 -0.697938,0 z M 55.945645,20.63648 c -1.162137,0 -12.415266,6.700158 -12.423308,7.398144 -0.0047,0.384367 1.708558,3.667915 3.796787,7.314393 3.7477,6.544272 3.848753,6.656545 7.81691,6.979386 2.211066,0.179891 0.1005,0.386073 -4.690148,0.474603 l -8.71027,0.1675 0,-2.233402 c 0,-3.480151 -1.049022,-2.672808 -4.718062,3.601365 l -3.405943,5.806844 3.405943,6.225612 c 3.60787,6.624806 4.718062,7.582036 4.718062,4.048045 0,-2.037698 0.359818,-2.207316 5.136828,-2.456737 l 5.136828,-0.251258 4.243468,-7.453989 c 2.342656,-4.091322 4.064477,-7.736029 3.824701,-8.124005 -0.239786,-0.387985 0.368929,-1.43831 1.340041,-2.317151 2.775229,-2.511542 2.271091,-7.004872 -1.535463,-13.512092 -1.821805,-3.114333 -3.598704,-5.667258 -3.936374,-5.667258 z m -40.257093,2.680082 -7.7610832,0.02784 c -7.00055076,0.02568 -7.57072312,0.15372 -6.0022662,1.34005 0.953771,0.72139 2.0944344,1.312118 2.5125733,1.312118 0.4181577,0 -0.2584569,1.749144 -1.5075402,3.880537 -1.2490833,2.131402 -2.28923806,4.40136 -2.28923806,5.053079 0,0.651719 1.91506886,4.562129 4.24345856,8.710271 3.0973866,5.518177 4.3559931,7.104134 4.6901482,5.890603 0.2511926,-0.912248 2.1771436,-4.763606 4.2993036,-8.570685 3.495645,-6.271043 4.035139,-6.847842 5.667259,-5.974353 2.988723,1.59951 2.857526,0.351233 -0.586267,-5.806854 l -3.266348,-5.86268 z m 15.410476,19.570194 -8.766107,0.279172 -8.738184,0.251258 -1.702972,3.182608 c -1.9942254,3.724576 -1.489937,7.004562 1.479627,9.771131 1.731907,1.613476 2.910522,1.814672 9.575718,1.591308 l 7.621488,-0.251258 0.251258,-7.398153 0.279172,-7.426066 z"
       id="path2998"
       style="fill:#ffffff" />
  </g>
</svg>
