<?xml version="1.0" encoding="UTF-8" standalone="no"?>
<!-- Created with Inkscape (http://www.inkscape.org/) -->

<svg
   xmlns:dc="http://purl.org/dc/elements/1.1/"
   xmlns:cc="http://creativecommons.org/ns#"
   xmlns:rdf="http://www.w3.org/1999/02/22-rdf-syntax-ns#"
   xmlns:svg="http://www.w3.org/2000/svg"
   xmlns="http://www.w3.org/2000/svg"
   xmlns:sodipodi="http://sodipodi.sourceforge.net/DTD/sodipodi-0.dtd"
   xmlns:inkscape="http://www.inkscape.org/namespaces/inkscape"
   version="1.1"
   width="64"
   height="64"
   id="svg3809"
   inkscape:version="0.48.5 r10040"
   sodipodi:docname="icon_pack.svg">
  <sodipodi:namedview
     pagecolor="#636363"
     bordercolor="#666666"
     borderopacity="1"
     objecttolerance="10"
     gridtolerance="10"
     guidetolerance="10"
     inkscape:pageopacity="0.67843137"
     inkscape:pageshadow="2"
     inkscape:window-width="958"
     inkscape:window-height="1059"
     id="namedview2998"
     showgrid="false"
     inkscape:zoom="5.2149125"
     inkscape:cx="15.764972"
     inkscape:cy="39.628244"
     inkscape:window-x="0"
     inkscape:window-y="19"
     inkscape:window-maximized="0"
     inkscape:current-layer="svg3809" />
  <defs
     id="defs3811" />
  <metadata
     id="metadata3814">
    <rdf:RDF>
      <cc:Work
         rdf:about="">
        <dc:format>image/svg+xml</dc:format>
        <dc:type
           rdf:resource="http://purl.org/dc/dcmitype/StillImage" />
        <dc:title></dc:title>
      </cc:Work>
    </rdf:RDF>
  </metadata>
  <g
     id="g2989"
     transform="matrix(0.84863494,-0.72679561,0.77211866,0.79882042,-15.253581,27.135807)">
    <path
       style="fill:#ffffff;fill-opacity:1;stroke:none"
       d="m 27.613119,3.9798176 c 3.187014,0 5.752733,2.565719 5.752733,5.7527333 l 0,46.0218661 c 0,3.187014 -2.565719,5.752733 -5.752733,5.752733 -3.187014,0 -5.752733,-2.565719 -5.752733,-5.752733 l 0,-46.0218661 c 0,-3.1870143 2.565719,-5.7527333 5.752733,-5.7527333 z"
       id="rect2985" />
    <path
       transform="matrix(0,-1,1,0,0,0)"
       style="fill:#ffffff;fill-opacity:1;stroke:none"
       d="m -32.743483,-1.1505475 c 3.187015,0 5.752734,2.565719 5.752734,5.7527332 l 0,46.0218663 c 0,3.187014 -2.565719,5.752733 -5.752734,5.752733 -3.187014,0 -5.752733,-2.565719 -5.752733,-5.752733 l 0,-46.0218663 c 0,-3.1870142 2.565719,-5.7527332 5.752733,-5.7527332 z"
       id="rect2987" />
  </g>
</svg>
