<?xml version="1.0" encoding="UTF-8" standalone="no"?>
<!-- Created with Inkscape (http://www.inkscape.org/) -->

<svg
   xmlns:dc="http://purl.org/dc/elements/1.1/"
   xmlns:cc="http://creativecommons.org/ns#"
   xmlns:rdf="http://www.w3.org/1999/02/22-rdf-syntax-ns#"
   xmlns:svg="http://www.w3.org/2000/svg"
   xmlns="http://www.w3.org/2000/svg"
   xmlns:sodipodi="http://sodipodi.sourceforge.net/DTD/sodipodi-0.dtd"
   xmlns:inkscape="http://www.inkscape.org/namespaces/inkscape"
   version="1.1"
   width="64"
   height="64"
   id="svg3809"
   inkscape:version="0.48.5 r10040"
   sodipodi:docname="icon_hdd.svg">
  <sodipodi:namedview
     pagecolor="#1e1e1e"
     bordercolor="#666666"
     borderopacity="1"
     objecttolerance="10"
     gridtolerance="10"
     guidetolerance="10"
     inkscape:pageopacity="0.34901961"
     inkscape:pageshadow="2"
     inkscape:window-width="1920"
     inkscape:window-height="1080"
     id="namedview2989"
     showgrid="false"
     inkscape:zoom="3.6875"
     inkscape:cx="-2.6124248"
     inkscape:cy="43.202353"
     inkscape:window-x="0"
     inkscape:window-y="0"
     inkscape:window-maximized="0"
     inkscape:current-layer="svg3809" />
  <defs
     id="defs3811" />
  <metadata
     id="metadata3814">
    <rdf:RDF>
      <cc:Work
         rdf:about="">
        <dc:format>image/svg+xml</dc:format>
        <dc:type
           rdf:resource="http://purl.org/dc/dcmitype/StillImage" />
        <dc:title />
      </cc:Work>
    </rdf:RDF>
  </metadata>
  <path
     style="fill:#ffffff"
     d="M 31.6875,1.53125 C 31.31204,1.5743477 30.964755,1.7153784 30.65625,2 30.255779,2.3164478 29.92949,2.7101709 29.5625,3.0625 c -8.6e-4,0.089798 8.6e-4,0.1914521 0,0.28125 -0.0109,2.379e-4 -0.02036,-2.412e-4 -0.03125,0 l 0,4.6875 c 0.01039,-2.63e-5 0.02092,7.17e-5 0.03125,0 0.0013,1.3767923 0.21633,2.609638 -0.0625,3.84375 -0.506107,2.24005 -7.317998,0.590542 -10.09375,1.65625 -0.994696,0.581559 -0.043,1.788714 0.46875,2.375 3.673519,3.5808 7.23225,7.292338 10.9375,10.84375 1.154329,0.834175 2.663528,0.09784 3.46875,-0.875 1.973683,-2.121527 4.093838,-4.117942 6.125,-6.1875 1.384996,-1.416009 2.828451,-2.782834 4.15625,-4.25 0.603801,-0.742987 0.275095,-2.067369 -0.75,-2.1875 -2.692623,0.23303 -5.390476,0.109853 -7.90625,-0.0625 -1.100793,-0.264554 -1.662176,-1.389572 -1.6875,-2.46875 l -0.0625,0 0,-8.03125 C 33.669374,2.0526641 32.864121,1.5760793 32.0625,1.53125 c -0.126797,-0.00709 -0.249847,-0.014366 -0.375,0 z m -6.25,2 C 17.568238,4.0954541 12.167194,5.8318957 6.71875,9.4375 c -5.6108184,3.713068 -5.9375,4.892936 -5.9375,24 0,16.735956 0.0389005,16.974073 2.15625,19.75 2.5423013,3.333137 9.774087,6.970459 17.09375,8.5625 14.093715,3.065389 31.636583,0.01489 39.09375,-6.78125 4.075303,-3.714051 4.4375,-5.508995 4.4375,-22.0625 0,-17.678125 -0.331732,-19.008108 -6.1875,-23.25 C 52.5023,6.1264773 46.442581,4.1952215 38.25,3.5625 c 0,0 -0.575332,2.3982101 0,4.8125 0.914315,0.1770018 1.711527,-0.6677328 10.625,2.03125 8.731442,2.643864 11.656946,8.343055 7.71875,12.28125 -2.721415,2.721406 -9.97928,5.710688 -16.25,6.71875 -8.78422,1.412143 -15.671074,0.883441 -23.9375,-1.8125 C 10.617745,25.705943 5.09375,21.640761 5.09375,19.25 c 0,-3.985126 6.672338,-8.453826 15.59375,-10.4375 1.331139,-0.2959758 2.962621,-0.490957 4.75,-0.625 z M 5.09375,27.8125 9.25,29.90625 c 12.107224,6.081114 33.355715,6.26701 44.84375,0.40625 1.857994,-0.947868 3.58845,-1.71875 3.84375,-1.71875 0.2553,0 0.46875,1.556574 0.46875,3.40625 0,4.138285 -2.74537,6.746627 -10.0625,9.5625 -6.167348,2.373396 -21.500279,3.131674 -28.1875,1.375 C 9.4732392,40.131155 5.09375,36.714533 5.09375,31.25 z m 53.3125,14.53125 0,3.46875 c 0,2.672651 -0.53434,4.003732 -2.25,5.59375 C 53.528319,53.84173 46.200121,56.76273 41,57.4375 33.80128,58.371616 31.220435,58.435158 25.1875,57.8125 18.116813,57.082717 9.2532819,53.463659 6.75,50.28125 4.8557369,47.873088 4.3899726,41.87843 6.15625,42.65625 c 13.015818,5.731866 21.803205,7.252489 33.09375,5.75 7.229459,-0.962067 11.75558,-2.23407 16.5,-4.6875 z"
     id="path3000"
     inkscape:connector-curvature="0"
     sodipodi:nodetypes="sccccccsccccccccccccscsssssssccssssssccccssssssccssssssscc" />
</svg>
