<?xml version="1.0" encoding="UTF-8" standalone="no"?>
<!-- Created with Inkscape (http://www.inkscape.org/) -->

<svg
   xmlns:dc="http://purl.org/dc/elements/1.1/"
   xmlns:cc="http://creativecommons.org/ns#"
   xmlns:rdf="http://www.w3.org/1999/02/22-rdf-syntax-ns#"
   xmlns:svg="http://www.w3.org/2000/svg"
   xmlns="http://www.w3.org/2000/svg"
   version="1.1"
   width="800"
   height="600"
   id="svg2">
  <defs
     id="defs4" />
  <metadata
     id="metadata7">
    <rdf:RDF>
      <cc:Work
         rdf:about="">
        <dc:format>image/svg+xml</dc:format>
        <dc:type
           rdf:resource="http://purl.org/dc/dcmitype/StillImage" />
        <dc:title></dc:title>
      </cc:Work>
    </rdf:RDF>
  </metadata>
  <g
     transform="translate(57.578693,-478.62598)"
     id="layer1">
    <path
       d="m -297.57869,417.25814 1185.91909,0 0,789.93926 -1185.91909,0 z"
       id="rect3024"
       style="fill:#cccccc;fill-opacity:1;stroke:none" />
    <path
       d="m 127.98432,563.79657 427.85639,0 c 77.64909,0 140.16079,62.51168 140.16079,140.16076 l 0,157.35647 c 0,77.64905 -62.5117,140.1608 -140.16079,140.1608 l -427.85639,0 c -77.64908,0 -140.160764,-62.51175 -140.160764,-140.1608 l 0,-157.35647 c 0,-77.64908 62.511684,-140.16076 140.160764,-140.16076 z"
       id="rect2999"
       style="fill:#5a7879;fill-opacity:1;stroke:#000000;stroke-width:11.21228981;stroke-linecap:round;stroke-linejoin:round;stroke-miterlimit:4;stroke-opacity:1" />
    <g
       transform="matrix(2.8030723,0,0,2.8030723,-335.09859,425.86573)"
       id="text2991"
       style="font-size:40px;font-style:normal;font-weight:normal;line-height:125%;letter-spacing:0px;word-spacing:0px;fill:#cccccc;fill-opacity:1;stroke:none;font-family:Sans">
      <path
         d="m 136.88573,132.1132 0,-40.031245 8.72265,0 0,31.910155 16.1875,0 0,8.12109 -24.91015,0"
         id="path3002"
         style="font-size:56px;font-variant:normal;font-stretch:normal;text-align:center;text-anchor:middle;fill:#cccccc;font-family:Expo Black SSi;-inkscape-font-specification:Expo Black SSi" />
      <path
         d="m 164.5576,118.38664 c 0,-2.84373 0.66536,-5.35935 1.9961,-7.54687 1.33072,-2.20571 3.14452,-3.90102 5.4414,-5.08594 2.31509,-1.2031 4.87629,-1.80466 7.6836,-1.80469 2.77081,3e-5 5.31378,0.60159 7.6289,1.80469 2.33331,1.18492 4.16534,2.87112 5.4961,5.05859 1.33069,2.18752 1.99606,4.71226 1.99609,7.57422 -3e-5,2.84376 -0.6654,5.35939 -1.99609,7.54688 -1.33076,2.1875 -3.16279,3.88281 -5.4961,5.08593 -2.31512,1.1849 -4.85809,1.77735 -7.6289,1.77735 -2.80731,0 -5.36851,-0.59245 -7.6836,-1.77735 -2.29688,-1.20312 -4.11068,-2.89843 -5.4414,-5.08593 -1.33074,-2.20572 -1.9961,-4.72135 -1.9961,-7.54688 m 8.39453,0 c -1e-5,2.05991 0.60155,3.73699 1.80469,5.03125 1.22134,1.27605 2.86196,1.91407 4.92188,1.91406 2.0781,10e-6 3.70961,-0.63801 4.89453,-1.91406 1.2031,-1.29426 1.80466,-2.97134 1.80468,-5.03125 -2e-5,-2.09634 -0.60158,-3.78253 -1.80468,-5.05859 -1.18492,-1.29425 -2.81643,-1.94139 -4.89453,-1.94141 -2.05992,2e-5 -3.70054,0.64716 -4.92188,1.94141 -1.20314,1.27606 -1.8047,2.96225 -1.80469,5.05859"
         id="path3004"
         style="font-size:56px;font-variant:normal;font-stretch:normal;text-align:center;text-anchor:middle;fill:#cccccc;font-family:Expo Black SSi;-inkscape-font-specification:Expo Black SSi" />
      <path
         d="m 216.75682,132.1132 0,-3.47265 -0.10937,0 c -0.85679,1.38542 -2.0508,2.42448 -3.58204,3.11719 -1.53126,0.6927 -3.20834,1.03906 -5.03125,1.03906 -2.69792,0 -4.99479,-0.7474 -6.89062,-2.24219 -1.87761,-1.51302 -2.81641,-3.59114 -2.81641,-6.23437 0,-2.89843 0.96615,-5.05858 2.89844,-6.48047 1.93229,-1.42186 4.18359,-2.30598 6.75391,-2.65235 2.5703,-0.36456 5.49607,-0.54685 8.77734,-0.54687 -2e-5,-0.96613 -0.24611,-1.83201 -0.73828,-2.59766 -0.49221,-0.7656 -1.14846,-1.33982 -1.96875,-1.72265 -0.82033,-0.40102 -1.70444,-0.60154 -2.65234,-0.60157 -2.6797,3e-5 -4.95835,1.10289 -6.83594,3.3086 l -4.48438,-4.64844 c 1.49479,-1.44008 3.29036,-2.53383 5.38672,-3.28125 2.09635,-0.7656 4.29296,-1.14841 6.58985,-1.14844 2.44269,3e-5 4.46612,0.30081 6.07031,0.90235 1.60414,0.60159 2.87107,1.50393 3.80078,2.70703 0.94789,1.20315 1.61325,2.67059 1.99609,4.40234 0.38279,1.71356 0.57419,3.78257 0.57422,6.20703 l 0,13.94531 -7.73828,0 m 0,-12.03125 -2.07812,0 c -5.52345,2e-5 -8.28517,1.32163 -8.28516,3.96485 -1e-5,0.92969 0.41015,1.65886 1.23047,2.1875 0.8203,0.52865 1.74087,0.79297 2.76172,0.79297 1.76821,0 3.27212,-0.44661 4.51172,-1.33985 1.23956,-0.91145 1.85935,-2.18749 1.85937,-3.82812 l 0,-1.77735"
         id="path3006"
         style="font-size:56px;font-variant:normal;font-stretch:normal;text-align:center;text-anchor:middle;fill:#cccccc;font-family:Expo Black SSi;-inkscape-font-specification:Expo Black SSi" />
      <path
         d="m 258.31932,89.320236 0,42.792964 -7.73828,0 0,-3.63671 -0.10938,0 c -0.6745,1.09375 -1.79559,2.08724 -3.36328,2.98046 -1.54949,0.89323 -3.20835,1.33985 -4.97656,1.33985 -2.62501,0 -4.95834,-0.60156 -7,-1.80469 -2.04167,-1.20312 -3.61849,-2.87109 -4.73047,-5.00391 -1.09375,-2.15103 -1.64063,-4.61196 -1.64062,-7.38281 -1e-5,-2.57029 0.5013,-4.97654 1.5039,-7.21875 1.0026,-2.24216 2.45182,-4.03773 4.34766,-5.38672 1.89582,-1.36716 4.08332,-2.05075 6.5625,-2.05078 1.20311,3e-5 2.33332,0.11852 3.39062,0.35547 1.07551,0.23701 2.07811,0.63805 3.00782,1.20313 0.92966,0.56513 1.67706,1.25783 2.24218,2.07812 l 0.10938,0 0,-18.265624 8.39453,0 m -7.73828,29.066404 c -2e-5,-2.09634 -0.60159,-3.78253 -1.80469,-5.05859 -1.18491,-1.29425 -2.81642,-1.94139 -4.89453,-1.94141 -2.05991,2e-5 -3.70053,0.64716 -4.92187,1.94141 -1.20314,1.27606 -1.8047,2.96225 -1.80469,5.05859 -1e-5,2.05991 0.60155,3.73699 1.80469,5.03125 1.22134,1.27605 2.86196,1.91407 4.92187,1.91406 2.07811,10e-6 3.70962,-0.63801 4.89453,-1.91406 1.2031,-1.29426 1.80467,-2.97134 1.80469,-5.03125"
         id="path3008"
         style="font-size:56px;font-variant:normal;font-stretch:normal;text-align:center;text-anchor:middle;fill:#cccccc;font-family:Expo Black SSi;-inkscape-font-specification:Expo Black SSi" />
      <path
         d="m 265.20995,132.1132 0,-27.50781 8.39453,0 0,27.50781 -8.39453,0 m -0.6836,-36.121089 c 0,-1.348921 0.48307,-2.506472 1.44922,-3.472656 0.96614,-0.966105 2.10546,-1.449178 3.41797,-1.449219 0.87499,4.1e-5 1.67707,0.218791 2.40625,0.65625 0.74738,0.419311 1.33983,1.020873 1.77734,1.804688 0.45572,0.765663 0.68358,1.585974 0.6836,2.460937 -2e-5,1.312535 -0.47397,2.451857 -1.42188,3.417969 -0.94792,0.96618 -2.09636,1.44925 -3.44531,1.44922 -1.31251,3e-5 -2.45183,-0.48304 -3.41797,-1.44922 -0.96615,-0.966112 -1.44922,-2.105434 -1.44922,-3.417969"
         id="path3010"
         style="font-size:56px;font-variant:normal;font-stretch:normal;text-align:center;text-anchor:middle;fill:#cccccc;font-family:Expo Black SSi;-inkscape-font-specification:Expo Black SSi" />
      <path
         d="m 279.64745,132.1132 0,-27.50781 8.03906,0 0,3.77344 0.13672,0 c 0.65624,-1.23956 1.65884,-2.28773 3.00781,-3.14453 1.36717,-0.85674 3.00779,-1.28513 4.92187,-1.28516 2.67967,3e-5 4.76691,0.54691 6.26172,1.64063 1.49477,1.09377 2.50649,2.57945 3.03516,4.45703 0.52862,1.85939 0.79294,4.15627 0.79297,6.89062 l 0,15.17578 -8.39453,0 0,-13.45312 c -2e-5,-1.47655 -0.0821,-2.6979 -0.2461,-3.66406 -0.14585,-0.98436 -0.53778,-1.83201 -1.17578,-2.54297 -0.63804,-0.71092 -1.62241,-1.06639 -2.95312,-1.06641 -1.987,2e-5 -3.32684,0.63804 -4.01953,1.91406 -0.6745,1.25784 -1.01173,2.97137 -1.01172,5.14063 l 0,13.67187 -8.39453,0"
         id="path3012"
         style="font-size:56px;font-variant:normal;font-stretch:normal;text-align:center;text-anchor:middle;fill:#cccccc;font-family:Expo Black SSi;-inkscape-font-specification:Expo Black SSi" />
      <path
         d="m 340.35057,104.60539 0,25.21094 c -3e-5,3.42708 -0.58336,6.32552 -1.75,8.69531 -1.16669,2.36979 -2.91669,4.15624 -5.25,5.35938 -2.31513,1.20311 -5.22267,1.80467 -8.72266,1.80468 -1.8047,-1e-5 -3.49089,-0.12761 -5.05859,-0.38281 -1.54949,-0.23699 -3.07162,-0.65626 -4.56641,-1.25781 -1.49479,-0.58334 -2.84375,-1.3672 -4.04687,-2.35156 l 4.64844,-7.05469 c 2.73436,2.38802 5.67837,3.58203 8.83203,3.58203 2.44269,0 4.30206,-0.6198 5.57812,-1.85937 1.29425,-1.22136 1.94139,-2.84376 1.94141,-4.86719 l 0,-2.67969 -0.10938,0 c -0.89325,1.23959 -2.04168,2.16016 -3.44531,2.76172 -1.40366,0.58333 -2.81642,0.875 -4.23828,0.875 -2.62501,0 -4.95834,-0.59245 -7,-1.77734 -2.02344,-1.20313 -3.59115,-2.87109 -4.70312,-5.00391 -1.11199,-2.15103 -1.66798,-4.61197 -1.66797,-7.38281 -1e-5,-2.47915 0.5013,-4.81248 1.5039,-7 1.02083,-2.20571 2.47005,-3.97394 4.34766,-5.30469 1.89582,-1.34893 4.08332,-2.02341 6.5625,-2.02344 1.47655,3e-5 2.85285,0.21878 4.12891,0.65625 1.27602,0.4193 2.34242,0.95706 3.19921,1.61328 0.85675,0.65628 1.513,1.33987 1.96875,2.05078 l 0.10938,0 0,-3.66406 7.73828,0 m -21.16406,13.61719 c -10e-6,1.14845 0.29165,2.25131 0.875,3.30859 0.60155,1.0573 1.42186,1.90496 2.46094,2.54297 1.03904,0.6198 2.16925,0.9297 3.39062,0.92969 1.23957,1e-5 2.36977,-0.30989 3.39063,-0.92969 1.02081,-0.63801 1.82289,-1.48567 2.40625,-2.54297 0.60153,-1.05728 0.90232,-2.16014 0.90234,-3.30859 -2e-5,-1.16665 -0.30081,-2.27863 -0.90234,-3.33594 -0.58336,-1.0755 -1.38544,-1.92316 -2.40625,-2.54297 -1.02086,-0.638 -2.15106,-0.95701 -3.39063,-0.95703 -1.22137,2e-5 -2.35158,0.31903 -3.39062,0.95703 -1.03908,0.61981 -1.85939,1.46747 -2.46094,2.54297 -0.58335,1.05731 -0.87501,2.16929 -0.875,3.33594"
         id="path3014"
         style="font-size:56px;font-variant:normal;font-stretch:normal;text-align:center;text-anchor:middle;fill:#cccccc;font-family:Expo Black SSi;-inkscape-font-specification:Expo Black SSi" />
    </g>
    <g
       transform="matrix(2.8030723,0,0,2.8030723,-335.09859,425.86573)"
       id="text2995"
       style="font-size:40px;font-style:normal;font-weight:normal;line-height:125%;letter-spacing:0px;word-spacing:0px;fill:#000000;fill-opacity:1;stroke:none;font-family:Sans">
      <path
         d="m 216.53807,174.72319 c 0,-1.42187 0.49218,-2.64322 1.47656,-3.66406 1.0026,-1.03906 2.22395,-1.55859 3.66407,-1.5586 1.45832,1e-5 2.67967,0.51954 3.66406,1.5586 1.00259,1.02084 1.50389,2.24219 1.5039,3.66406 -1e-5,1.42188 -0.50131,2.64323 -1.5039,3.66406 -1.00262,1.02084 -2.22397,1.53125 -3.66406,1.53125 -1.42189,0 -2.63412,-0.51041 -3.63672,-1.53125 -1.00261,-1.02083 -1.50391,-2.24218 -1.50391,-3.66406"
         id="path3017"
         style="font-size:56px;font-variant:normal;font-stretch:normal;text-align:center;text-anchor:middle;fill:#ffff00;font-family:Expo Black SSi;-inkscape-font-specification:Expo Black SSi" />
      <path
         d="m 233.16307,174.72319 c 0,-1.42187 0.49218,-2.64322 1.47656,-3.66406 1.0026,-1.03906 2.22395,-1.55859 3.66407,-1.5586 1.45832,1e-5 2.67967,0.51954 3.66406,1.5586 1.00259,1.02084 1.50389,2.24219 1.5039,3.66406 -1e-5,1.42188 -0.50131,2.64323 -1.5039,3.66406 -1.00262,1.02084 -2.22397,1.53125 -3.66406,1.53125 -1.42189,0 -2.63412,-0.51041 -3.63672,-1.53125 -1.00261,-1.02083 -1.50391,-2.24218 -1.50391,-3.66406"
         id="path3019"
         style="font-size:56px;font-variant:normal;font-stretch:normal;text-align:center;text-anchor:middle;fill:#00ff00;font-family:Expo Black SSi;-inkscape-font-specification:Expo Black SSi" />
      <path
         d="m 249.78807,174.72319 c 0,-1.42187 0.49218,-2.64322 1.47656,-3.66406 1.0026,-1.03906 2.22395,-1.55859 3.66407,-1.5586 1.45832,1e-5 2.67967,0.51954 3.66406,1.5586 1.00259,1.02084 1.50389,2.24219 1.5039,3.66406 -10e-6,1.42188 -0.50131,2.64323 -1.5039,3.66406 -1.00262,1.02084 -2.22397,1.53125 -3.66406,1.53125 -1.42189,0 -2.63412,-0.51041 -3.63672,-1.53125 -1.00261,-1.02083 -1.50391,-2.24218 -1.50391,-3.66406"
         id="path3021"
         style="font-size:56px;font-variant:normal;font-stretch:normal;text-align:center;text-anchor:middle;fill:#00ffff;font-family:Expo Black SSi;-inkscape-font-specification:Expo Black SSi" />
    </g>
  </g>
</svg>
