<?xml version="1.0" encoding="UTF-8" standalone="no"?>

<svg
   xmlns:dc="http://purl.org/dc/elements/1.1/"
   xmlns:cc="http://creativecommons.org/ns#"
   xmlns:rdf="http://www.w3.org/1999/02/22-rdf-syntax-ns#"
   xmlns:svg="http://www.w3.org/2000/svg"
   xmlns="http://www.w3.org/2000/svg"
   xmlns:sodipodi="http://sodipodi.sourceforge.net/DTD/sodipodi-0.dtd"
   xmlns:inkscape="http://www.inkscape.org/namespaces/inkscape"
   width="64px"
   viewBox="0 0 64 192"
   height="192px"
   id="svg2"
   version="1.1"
   inkscape:version="0.48.5 r10040"
   sodipodi:docname="icons.svg">
  <defs
     id="defs19" />
  <sodipodi:namedview
     pagecolor="#ffffff"
     bordercolor="#666666"
     borderopacity="1"
     objecttolerance="10"
     gridtolerance="10"
     guidetolerance="10"
     inkscape:pageopacity="0"
     inkscape:pageshadow="2"
     inkscape:window-width="1918"
     inkscape:window-height="1059"
     id="namedview17"
     showgrid="true"
     inkscape:zoom="3.4766083"
     inkscape:cx="-2.6513253"
     inkscape:cy="86.715182"
     inkscape:window-x="0"
     inkscape:window-y="19"
     inkscape:window-maximized="0"
     inkscape:current-layer="svg2">
    <inkscape:grid
       type="xygrid"
       id="grid3774" />
  </sodipodi:namedview>
        
<svg
y="0"
   
   
   
   
   
   
   
   version="1.1"
   width="64"
   height="64"
   id="svg3809"
   inkscape:version="0.48.5 r10040"
   sodipodi:docname="icon_pack.svg">
  <sodipodi:namedview
     pagecolor="#636363"
     bordercolor="#666666"
     borderopacity="1"
     objecttolerance="10"
     gridtolerance="10"
     guidetolerance="10"
     inkscape:pageopacity="0.67843137"
     inkscape:pageshadow="2"
     inkscape:window-width="1108"
     inkscape:window-height="1059"
     id="namedview2998"
     showgrid="false"
     inkscape:zoom="5.2149125"
     inkscape:cx="15.381456"
     inkscape:cy="39.628244"
     inkscape:window-x="0"
     inkscape:window-y="19"
     inkscape:window-maximized="0"
     inkscape:current-layer="svg3809" />
  <defs
     id="defs3811" />
  <metadata
     id="metadata3814">
    <rdf:RDF>
      <cc:Work
         rdf:about="">
        <dc:format>image/svg+xml</dc:format>
        <dc:type
           rdf:resource="http://purl.org/dc/dcmitype/StillImage" />
        <dc:title />
      </cc:Work>
    </rdf:RDF>
  </metadata>
  <g
     id="layer1"
     style="stroke:none;fill:#ffffff">
    <g
       transform="matrix(0.90454288,0,0,0.90454288,-250.81917,-255.34646)"
       id="g3891"
       style="stroke:none;fill:#ffffff">
      <path
         d="m 297.85803,283.63609 c -3.10414,0 -5.58368,2.50677 -5.58368,5.61091 l 0,51.66942 c 0,3.10413 2.47954,5.61091 5.58368,5.61091 l 33.93785,0 c 3.10413,0 5.61091,-2.50678 5.61091,-5.61091 l 0,-30.4787 -0.10895,-0.10894 c -0.0705,-0.26273 -0.19866,-0.52696 -0.40856,-0.73542 L 311.25885,284.1536 c -0.10656,-0.10583 -0.22992,-0.1751 -0.35409,-0.24514 -0.0858,-0.0874 -0.17053,-0.17769 -0.24514,-0.27237 l -12.80159,0 z m 13.40082,4.79378 21.49034,21.35416 -15.87943,0 c -3.10414,0 -5.61091,-2.47954 -5.61091,-5.58368 l 0,-15.77048 z"
         id="path3802"
         style="fill:#ffffff;fill-opacity:1;stroke:none;stroke-width:1.74319600999999991;stroke-linecap:round;stroke-linejoin:round;stroke-miterlimit:4;stroke-opacity:1;stroke-dasharray:none" />
      <path
         style="fill:#ffffff;fill-opacity:1;stroke:none"
         d="m 293.30647,287.96753 c -4.64273,-0.13777 -6.36141,5.12511 -5.58148,8.9452 0.0602,16.49725 -0.13504,33.00724 0.10127,49.4965 0.70431,3.93018 5.11436,4.96417 8.50807,4.44679 10.6938,-0.0594 21.40118,0.13791 32.08642,-0.10448 3.53416,-0.64928 4.93311,-4.55551 4.43448,-7.75043 0,-9.41065 0,-18.82129 0,-28.23193 -1.32169,-1.74662 -4.17457,-1.08108 -6.18815,-1.69168 -5.20464,-0.77769 -10.40927,-1.55538 -15.61391,-2.33307 -1.64284,-7.48554 -3.03011,-15.02474 -4.69996,-22.50452 -3.32694,-0.5321 -6.83191,-0.16046 -10.24269,-0.27237 -0.93468,-10e-6 -1.86939,1e-5 -2.80405,-10e-6 z m 9.69092,13.48555 c 4.44286,5.24543 8.88571,10.49087 13.32857,15.7363 -2.78153,-2.65361 -6.63616,-4.14029 -9.14434,-6.9303 -0.91379,-3.13544 -2.7563,-5.88476 -4.18423,-8.806 z"
         id="rect3019"
         inkscape:connector-curvature="0" />
    </g>
  </g>
</svg>

<svg
y="64"
   
   
   
   
   
   
   
   version="1.1"
   width="64"
   height="64"
   id="svg3809"
   inkscape:version="0.48.5 r10040"
   sodipodi:docname="icon_hdd.svg">
  <sodipodi:namedview
     pagecolor="#1e1e1e"
     bordercolor="#666666"
     borderopacity="1"
     objecttolerance="10"
     gridtolerance="10"
     guidetolerance="10"
     inkscape:pageopacity="0.34901961"
     inkscape:pageshadow="2"
     inkscape:window-width="1920"
     inkscape:window-height="1080"
     id="namedview2989"
     showgrid="false"
     inkscape:zoom="3.6875"
     inkscape:cx="-2.6124248"
     inkscape:cy="43.202353"
     inkscape:window-x="0"
     inkscape:window-y="0"
     inkscape:window-maximized="0"
     inkscape:current-layer="svg3809" />
  <defs
     id="defs3811" />
  <metadata
     id="metadata3814">
    <rdf:RDF>
      <cc:Work
         rdf:about="">
        <dc:format>image/svg+xml</dc:format>
        <dc:type
           rdf:resource="http://purl.org/dc/dcmitype/StillImage" />
        <dc:title />
      </cc:Work>
    </rdf:RDF>
  </metadata>
  <path
     style="fill:#ffffff"
     d="M 31.6875,1.53125 C 31.31204,1.5743477 30.964755,1.7153784 30.65625,2 30.255779,2.3164478 29.92949,2.7101709 29.5625,3.0625 c -8.6e-4,0.089798 8.6e-4,0.1914521 0,0.28125 -0.0109,2.379e-4 -0.02036,-2.412e-4 -0.03125,0 l 0,4.6875 c 0.01039,-2.63e-5 0.02092,7.17e-5 0.03125,0 0.0013,1.3767923 0.21633,2.609638 -0.0625,3.84375 -0.506107,2.24005 -7.317998,0.590542 -10.09375,1.65625 -0.994696,0.581559 -0.043,1.788714 0.46875,2.375 3.673519,3.5808 7.23225,7.292338 10.9375,10.84375 1.154329,0.834175 2.663528,0.09784 3.46875,-0.875 1.973683,-2.121527 4.093838,-4.117942 6.125,-6.1875 1.384996,-1.416009 2.828451,-2.782834 4.15625,-4.25 0.603801,-0.742987 0.275095,-2.067369 -0.75,-2.1875 -2.692623,0.23303 -5.390476,0.109853 -7.90625,-0.0625 -1.100793,-0.264554 -1.662176,-1.389572 -1.6875,-2.46875 l -0.0625,0 0,-8.03125 C 33.669374,2.0526641 32.864121,1.5760793 32.0625,1.53125 c -0.126797,-0.00709 -0.249847,-0.014366 -0.375,0 z m -6.25,2 C 17.568238,4.0954541 12.167194,5.8318957 6.71875,9.4375 c -5.6108184,3.713068 -5.9375,4.892936 -5.9375,24 0,16.735956 0.0389005,16.974073 2.15625,19.75 2.5423013,3.333137 9.774087,6.970459 17.09375,8.5625 14.093715,3.065389 31.636583,0.01489 39.09375,-6.78125 4.075303,-3.714051 4.4375,-5.508995 4.4375,-22.0625 0,-17.678125 -0.331732,-19.008108 -6.1875,-23.25 C 52.5023,6.1264773 46.442581,4.1952215 38.25,3.5625 c 0,0 -0.575332,2.3982101 0,4.8125 0.914315,0.1770018 1.711527,-0.6677328 10.625,2.03125 8.731442,2.643864 11.656946,8.343055 7.71875,12.28125 -2.721415,2.721406 -9.97928,5.710688 -16.25,6.71875 -8.78422,1.412143 -15.671074,0.883441 -23.9375,-1.8125 C 10.617745,25.705943 5.09375,21.640761 5.09375,19.25 c 0,-3.985126 6.672338,-8.453826 15.59375,-10.4375 1.331139,-0.2959758 2.962621,-0.490957 4.75,-0.625 z M 5.09375,27.8125 9.25,29.90625 c 12.107224,6.081114 33.355715,6.26701 44.84375,0.40625 1.857994,-0.947868 3.58845,-1.71875 3.84375,-1.71875 0.2553,0 0.46875,1.556574 0.46875,3.40625 0,4.138285 -2.74537,6.746627 -10.0625,9.5625 -6.167348,2.373396 -21.500279,3.131674 -28.1875,1.375 C 9.4732392,40.131155 5.09375,36.714533 5.09375,31.25 z m 53.3125,14.53125 0,3.46875 c 0,2.672651 -0.53434,4.003732 -2.25,5.59375 C 53.528319,53.84173 46.200121,56.76273 41,57.4375 33.80128,58.371616 31.220435,58.435158 25.1875,57.8125 18.116813,57.082717 9.2532819,53.463659 6.75,50.28125 4.8557369,47.873088 4.3899726,41.87843 6.15625,42.65625 c 13.015818,5.731866 21.803205,7.252489 33.09375,5.75 7.229459,-0.962067 11.75558,-2.23407 16.5,-4.6875 z"
     id="path3000"
     inkscape:connector-curvature="0"
     sodipodi:nodetypes="sccccccsccccccccccccscsssssssccssssssccccssssssccssssssscc" />
</svg>

<svg
y="128"
   
   
   
   
   
   
   
   version="1.1"
   width="64"
   height="64"
   id="svg3809"
   inkscape:version="0.48.5 r10040"
   sodipodi:docname="icon_cycle.svg">
  <sodipodi:namedview
     pagecolor="#7f7f7f"
     bordercolor="#666666"
     borderopacity="1"
     objecttolerance="10"
     gridtolerance="10"
     guidetolerance="10"
     inkscape:pageopacity="0.6627451"
     inkscape:pageshadow="2"
     inkscape:window-width="808"
     inkscape:window-height="364"
     id="namedview7"
     showgrid="false"
     inkscape:zoom="3.6875"
     inkscape:cx="32"
     inkscape:cy="32"
     inkscape:window-x="1110"
     inkscape:window-y="366"
     inkscape:window-maximized="0"
     inkscape:current-layer="svg3809" />
  <defs
     id="defs3811" />
  <metadata
     id="metadata3814">
    <rdf:RDF>
      <cc:Work
         rdf:about="">
        <dc:format>image/svg+xml</dc:format>
        <dc:type
           rdf:resource="http://purl.org/dc/dcmitype/StillImage" />
        <dc:title />
      </cc:Work>
    </rdf:RDF>
  </metadata>
  <g
     id="layer1"
     style="fill:#ffffff">
    <path
       d="m 36.096271,1.8758883 c -8.431653,0 -8.851535,0.08783 -7.565652,1.563386 0.749341,0.859861 2.980493,4.540767 4.969319,8.1798307 l 3.629279,6.616465 -1.926307,1.647135 c -1.904364,1.614808 -1.811298,1.638541 5.611422,1.423791 l 7.537739,-0.223336 3.37802,-5.806853 c 3.974551,-6.8327047 4.179524,-7.8704777 1.200455,-5.9185167 -2.153663,1.4111277 -2.248708,1.3839077 -3.685115,-1.451713 -2.955973,-5.835395 -3.390599,-6.030189 -13.14916,-6.030189 z m -13.819186,0.893361 c -3.297449,0.194925 -4.917842,2.024547 -9.464046,9.9386477 l -2.372987,4.103873 6.058102,3.657202 c 3.32598,2.007929 6.337958,3.563478 6.700214,3.46177 0.362256,-0.10169 2.41543,-3.182599 4.578476,-6.867714 3.667071,-6.24746 3.846053,-6.861377 2.708005,-9.0732007 -2.031944,-3.949084 -3.843616,-5.220578 -7.509826,-5.220578 -0.236055,0 -0.478108,-0.01293 -0.697938,0 z M 55.945645,20.63648 c -1.162137,0 -12.415266,6.700158 -12.423308,7.398144 -0.0047,0.384367 1.708558,3.667915 3.796787,7.314393 3.7477,6.544272 3.848753,6.656545 7.81691,6.979386 2.211066,0.179891 0.1005,0.386073 -4.690148,0.474603 l -8.71027,0.1675 0,-2.233402 c 0,-3.480151 -1.049022,-2.672808 -4.718062,3.601365 l -3.405943,5.806844 3.405943,6.225612 c 3.60787,6.624806 4.718062,7.582036 4.718062,4.048045 0,-2.037698 0.359818,-2.207316 5.136828,-2.456737 l 5.136828,-0.251258 4.243468,-7.453989 c 2.342656,-4.091322 4.064477,-7.736029 3.824701,-8.124005 -0.239786,-0.387985 0.368929,-1.43831 1.340041,-2.317151 2.775229,-2.511542 2.271091,-7.004872 -1.535463,-13.512092 -1.821805,-3.114333 -3.598704,-5.667258 -3.936374,-5.667258 z m -40.257093,2.680082 -7.7610832,0.02784 c -7.00055076,0.02568 -7.57072312,0.15372 -6.0022662,1.34005 0.953771,0.72139 2.0944344,1.312118 2.5125733,1.312118 0.4181577,0 -0.2584569,1.749144 -1.5075402,3.880537 -1.2490833,2.131402 -2.28923806,4.40136 -2.28923806,5.053079 0,0.651719 1.91506886,4.562129 4.24345856,8.710271 3.0973866,5.518177 4.3559931,7.104134 4.6901482,5.890603 0.2511926,-0.912248 2.1771436,-4.763606 4.2993036,-8.570685 3.495645,-6.271043 4.035139,-6.847842 5.667259,-5.974353 2.988723,1.59951 2.857526,0.351233 -0.586267,-5.806854 l -3.266348,-5.86268 z m 15.410476,19.570194 -8.766107,0.279172 -8.738184,0.251258 -1.702972,3.182608 c -1.9942254,3.724576 -1.489937,7.004562 1.479627,9.771131 1.731907,1.613476 2.910522,1.814672 9.575718,1.591308 l 7.621488,-0.251258 0.251258,-7.398153 0.279172,-7.426066 z"
       id="path2998"
       style="fill:#ffffff" />
  </g>
</svg>

</svg>