<?xml version="1.0" encoding="UTF-8" standalone="no"?>
<svg
   xmlns:dc="http://purl.org/dc/elements/1.1/"
   xmlns:cc="http://creativecommons.org/ns#"
   xmlns:rdf="http://www.w3.org/1999/02/22-rdf-syntax-ns#"
   xmlns:svg="http://www.w3.org/2000/svg"
   xmlns="http://www.w3.org/2000/svg"
   xmlns:sodipodi="http://sodipodi.sourceforge.net/DTD/sodipodi-0.dtd"
   xmlns:inkscape="http://www.inkscape.org/namespaces/inkscape"
   width="64px"
   viewBox="0 0 64 192"
   height="192px"
   id="svg2"
   version="1.1"
   inkscape:version="0.48.5 r10040"
   sodipodi:docname="icons.svg">
  <metadata
     id="metadata21">
    <rdf:RDF>
      <cc:Work
         rdf:about="">
        <dc:format>image/svg+xml</dc:format>
        <dc:type
           rdf:resource="http://purl.org/dc/dcmitype/StillImage" />
      </cc:Work>
    </rdf:RDF>
  </metadata>
  <defs
     id="defs19" />
  <sodipodi:namedview
     pagecolor="#ffffff"
     bordercolor="#666666"
     borderopacity="1"
     objecttolerance="10"
     gridtolerance="10"
     guidetolerance="10"
     inkscape:pageopacity="0"
     inkscape:pageshadow="2"
     inkscape:window-width="1918"
     inkscape:window-height="1059"
     id="namedview17"
     showgrid="true"
     inkscape:zoom="3.4766083"
     inkscape:cx="-2.6513253"
     inkscape:cy="86.715182"
     inkscape:window-x="0"
     inkscape:window-y="19"
     inkscape:window-maximized="0"
     inkscape:current-layer="svg2">
    <inkscape:grid
       type="xygrid"
       id="grid3774" />
  </sodipodi:namedview>
  <svg
     id="icon_pack"
     height="64"
     width="64"
     version="1.1"
     y="0"
     style="stroke:none;fill:#ffffff">
    <g
       id="layer1"
       style="stroke:none;fill:#ffffff">
      <g
         id="g3891"
         stroke-linejoin="round"
         transform="matrix(.90454 0 0 .90454 -250.82 -255.35)"
         stroke="#fff"
         stroke-linecap="round"
         stroke-width="1.7432"
         style="stroke:none;fill:#ffffff">
        <path
           id="path3802"
           d="m297.86 283.64c-3.1041 0-5.5837 2.5068-5.5837 5.6109v51.669c0 3.1041 2.4795 5.6109 5.5837 5.6109h33.938c3.1041 0 5.6109-2.5068 5.6109-5.6109v-30.479l-0.10895-0.10894c-0.0705-0.26273-0.19866-0.52696-0.40856-0.73542l-25.63-25.44c-0.10656-0.10583-0.22992-0.1751-0.35409-0.24514-0.0858-0.0874-0.17053-0.17769-0.24514-0.27237h-12.802zm13.401 4.7938 21.49 21.354h-15.879c-3.1041 0-5.6109-2.4795-5.6109-5.5837v-15.77z"
           style="stroke:none;fill:#ffffff" />
        <path
           id="rect3019"
           d="m 293.31,287.97 c -3.1041,0 -5.5837,2.5068 -5.5837,5.6109 l 0,51.669 c 0,3.1041 2.4795,5.6109 5.5837,5.6109 l 33.938,0 c 3.1041,0 5.6109,-2.5068 5.6109,-5.6109 l 0,-30.479 -0.10895,-0.10895 c -0.0705,-0.26273 -21.90162,-2.5939 -22.11153,-2.80236 l -3.92703,-23.37305 c -0.10655,-0.10583 -0.22992,-0.1751 -0.35408,-0.24514 -0.0858,-0.0873 -0.17053,-0.17769 -0.24514,-0.27237 l -12.802,0 z m 13.401,4.7938 -0.21297,19.28705 5.82397,2.06695 c 2.92533,1.03821 -5.6109,-2.4795 -5.6109,-5.5837 l 0,-15.77 z"
           style="fill:#ffffff;stroke:none"
           inkscape:connector-curvature="0"
           sodipodi:nodetypes="csssssccccccccccsscc" />
      </g>
    </g>
  </svg>
  <svg
     id="icon_hdd"
     height="64"
     width="64"
     version="1.1"
     y="64"
     style="fill:#ffffff">
    <g
       id="g10"
       style="fill:#ffffff">
      <path
         id="path3000"
         d="m32.074 1.5169c-0.50719-0.028357-1.0128 0.10417-1.4242 0.48366-0.40047 0.31645-0.73472 0.72251-1.1017 1.0748-0.00086 0.089798 0.00086 0.17892 0 0.26871-10.222 0.2231-16.486 1.895-22.84 6.0997-5.6106 3.7132-5.9114 4.8882-5.9114 23.996 0 16.736 0.032327 16.974 2.1497 19.75 2.5423 3.3331 9.7702 6.9529 17.09 8.5449 14.094 3.0654 31.64 0.02467 39.097-6.7715 4.0753-3.7141 4.4337-5.5075 4.4337-22.061 0-17.678-0.35141-19.001-6.2072-23.243-5.636-4.083-12.836-6.0527-23.11-6.3159v-0.56429c-0.474-0.6881-1.331-1.2156-2.177-1.2629zm-2.9021 6.5027c0.12323-0.00189 0.25226 0.0008601 0.3762 0 0.0038 1.277 0.01399 2.5689-0.05369 3.8425-0.31591 1.3093-1.834 1.8846-3.0633 1.666-2.3434-0.01758-4.7654-0.94309-7.0402 0-0.9947 0.58156-0.02807 1.7784 0.48368 2.3646 3.6735 3.5808 7.2312 7.3044 10.936 10.856 1.1543 0.83418 2.6611 0.08611 3.4664-0.88673 1.9737-2.1215 4.0954-4.1107 6.1266-6.1803 1.385-1.416 2.8372-2.7784 4.165-4.2456 0.6038-0.74299 0.27272-2.0564-0.75237-2.1765-1.1521-0.05643-2.3052 0.21817-3.4664 0.13436-1.4773-0.0276-2.9622-0.11361-4.4337-0.21497-1.3079-0.31432-1.8822-1.837-1.666-3.0633v-2.0153c5.7506 0.26438 11.48 1.0895 14.618 2.3109 8.5014 3.3096 11.677 8.3418 7.7388 12.28-2.7214 2.7214-9.9862 5.7097-16.257 6.7177-8.7842 1.4121-15.676 0.8956-23.942-1.8003-5.7885-1.8878-11.313-5.9661-11.313-8.3568 0-3.9851 6.6637-8.4422 15.585-10.426 2.216-0.49273 5.2265-0.75769 8.4912-0.80612zm-24.076 19.804l4.165 2.0959c12.107 6.0811 33.359 6.2638 44.848 0.40306 1.858-0.94787 3.5872-1.7197 3.8425-1.7197s0.45681 1.5361 0.45681 3.3857c0 4.1383-2.7595 6.7502-10.077 9.566-6.1673 2.3734-21.5 3.1271-28.188 1.3704-10.682-2.806-15.047-6.197-15.047-11.662v-3.4395zm53.312 14.51v3.4932c0 2.6727-0.54149 3.9991-2.2572 5.5892-2.6279 2.4355-9.9551 5.3443-15.155 6.0191-7.1987 0.93412-9.7671 0.99886-15.8 0.3762-7.071-0.729-15.931-4.341-18.434-7.523-1.8943-2.409-2.3575-8.41-0.5912-7.632 13.016 5.732 21.787 7.253 33.078 5.751 7.229-0.962 11.754-2.249 16.499-4.703l2.6602-1.3704z"
         style="fill:#ffffff" />
    </g>
  </svg>
  <svg
     id="icon_cycle"
     height="64"
     width="64"
     version="1.1"
     y="128"
     style="fill:#ffffff">
    <g
       id="g14"
       style="fill:#ffffff">
      <path
         id="path2998"
         d="m36.096 1.8759c-8.4317 0-8.8515 0.08783-7.5657 1.5634 0.74934 0.85986 2.9805 4.5408 4.9693 8.1798l3.6293 6.6165-1.9263 1.6471c-1.9044 1.6148-1.8113 1.6385 5.6114 1.4238l7.5377-0.22334 3.378-5.8069c3.9746-6.8327 4.1795-7.8705 1.2005-5.9185-2.1537 1.4111-2.2487 1.3839-3.6851-1.4517-2.956-5.8354-3.3906-6.0302-13.149-6.0302zm-13.819 0.89336c-3.2974 0.19492-4.9178 2.0245-9.464 9.9386l-2.373 4.1039 6.0581 3.6572c3.326 2.0079 6.338 3.5635 6.7002 3.4618 0.36226-0.10169 2.4154-3.1826 4.5785-6.8677 3.6671-6.2475 3.8461-6.8614 2.708-9.0732-2.0319-3.9491-3.8436-5.2206-7.5098-5.2206-0.23606 0-0.47811-0.01293-0.69794 0zm33.669 17.867c-1.1621 0-12.415 6.7002-12.423 7.3981-0.0047 0.38437 1.7086 3.6679 3.7968 7.3144 3.7477 6.5443 3.8488 6.6565 7.8169 6.9794 2.2111 0.17989 0.1005 0.38607-4.6901 0.4746l-8.7103 0.1675v-2.2334c0-3.4802-1.049-2.6728-4.7181 3.6014l-3.4059 5.8068 3.4059 6.2256c3.6079 6.6248 4.7181 7.582 4.7181 4.048 0-2.0377 0.35982-2.2073 5.1368-2.4567l5.1368-0.25126 4.2435-7.454c2.3427-4.0913 4.0645-7.736 3.8247-8.124-0.23979-0.38798 0.36893-1.4383 1.34-2.3172 2.7752-2.5115 2.2711-7.0049-1.5355-13.512-1.8218-3.1143-3.5987-5.6673-3.9364-5.6673zm-40.257 2.6801-7.7611 0.02784c-7.0006 0.02568-7.5707 0.15372-6.0023 1.34 0.95377 0.72139 2.0944 1.3121 2.5126 1.3121 0.41816 0-0.25846 1.7491-1.5075 3.8805-1.2491 2.1314-2.2892 4.4014-2.2892 5.0531 0 0.65172 1.9151 4.5621 4.2435 8.7103 3.0974 5.5182 4.356 7.1041 4.6901 5.8906 0.25119-0.91225 2.1771-4.7636 4.2993-8.5707 3.4956-6.271 4.0351-6.8478 5.6673-5.9744 2.9887 1.5995 2.8575 0.35123-0.58627-5.8069l-3.2663-5.8627zm15.41 19.57-8.7661 0.27917-8.7382 0.25126-1.703 3.1826c-1.9942 3.7246-1.4899 7.0046 1.4796 9.7711 1.7319 1.6135 2.9105 1.8147 9.5757 1.5913l7.6215-0.25126 0.25126-7.3982 0.27917-7.4261z"
         style="fill:#ffffff" />
    </g>
  </svg>
</svg>
